<?xml version="1.0" encoding="UTF-8"?>
<svg width="202px" height="41px" viewBox="0 0 202 41" version="1.1" xmlns="http://www.w3.org/2000/svg" xmlns:xlink="http://www.w3.org/1999/xlink">
    <title>Easy Email</title>
    <g id="Page-1" stroke="none" stroke-width="1" fill="none" fill-rule="evenodd">
        <g id="Easy-Email" transform="translate(0.8864, 0.75)" fill-rule="nonzero">
            <polygon id="Path" fill="#191A1E" points="1.13686838e-13 31.25 1.13686838e-13 2.15909091 20.9659091 2.15909091 20.9659091 8.52272727 7.89772727 8.52272727 7.89772727 13.5227273 19.8863636 13.5227273 19.8863636 19.8863636 7.89772727 19.8863636 7.89772727 24.8863636 20.9090909 24.8863636 20.9090909 31.25"></polygon>
            <path d="M30.0795455,31.5909091 C28.6875,31.5909091 27.4588068,31.3612689 26.3934659,30.9019886 C25.328125,30.4427083 24.4924242,29.7443182 23.8863636,28.8068182 C23.280303,27.8693182 22.9772727,26.6761364 22.9772727,25.2272727 C22.9772727,24.0340909 23.1808712,23.0137311 23.5880682,22.1661932 C23.9952652,21.3186553 24.563447,20.625 25.2926136,20.0852273 C26.0217803,19.5454545 26.8716856,19.1335227 27.8423295,18.8494318 C28.8129735,18.5653409 29.8617424,18.3806818 30.9886364,18.2954545 C32.2102273,18.2007576 33.1927083,18.0847538 33.9360795,17.9474432 C34.6794508,17.8101326 35.2168561,17.6160038 35.5482955,17.3650568 C35.8797348,17.1141098 36.0454545,16.780303 36.0454545,16.3636364 L36.0454545,16.3068182 C36.0454545,15.7386364 35.8276515,15.3030303 35.3920455,15 C34.9564394,14.6969697 34.3977273,14.5454545 33.7159091,14.5454545 C32.967803,14.5454545 32.359375,14.7088068 31.890625,15.0355114 C31.421875,15.3622159 31.1401515,15.8617424 31.0454545,16.5340909 L23.8295455,16.5340909 C23.9242424,15.2083333 24.3480114,13.984375 25.1008523,12.8622159 C25.8536932,11.7400568 26.9545455,10.8404356 28.4034091,10.1633523 C29.8522727,9.48626894 31.6609848,9.14772727 33.8295455,9.14772727 C35.3920455,9.14772727 36.7935606,9.33001894 38.0340909,9.69460227 C39.2746212,10.0591856 40.3304924,10.5658144 41.2017045,11.2144886 C42.0729167,11.8631629 42.7381629,12.6207386 43.1974432,13.4872159 C43.6567235,14.3536932 43.8863636,15.2935606 43.8863636,16.3068182 L43.8863636,31.25 L36.5568182,31.25 L36.5568182,28.1818182 L36.3863636,28.1818182 C35.9507576,28.9962121 35.422822,29.6543561 34.8025568,30.15625 C34.1822917,30.6581439 33.4767992,31.0227273 32.6860795,31.25 C31.8953598,31.4772727 31.0265152,31.5909091 30.0795455,31.5909091 Z M32.6363636,26.6477273 C33.2329545,26.6477273 33.7940341,26.5246212 34.3196023,26.2784091 C34.8451705,26.032197 35.2736742,25.6770833 35.6051136,25.2130682 C35.936553,24.749053 36.1022727,24.1856061 36.1022727,23.5227273 L36.1022727,21.7045455 C35.8939394,21.7897727 35.6737689,21.8702652 35.4417614,21.9460227 C35.2097538,22.0217803 34.9635417,22.092803 34.703125,22.1590909 C34.4427083,22.2253788 34.1680871,22.2869318 33.8792614,22.34375 C33.5904356,22.4005682 33.2897727,22.4526515 32.9772727,22.5 C32.3712121,22.594697 31.8764205,22.7485795 31.4928977,22.9616477 C31.109375,23.1747159 30.8252841,23.4351326 30.640625,23.7428977 C30.4559659,24.0506629 30.3636364,24.3939394 30.3636364,24.7727273 C30.3636364,25.3787879 30.5767045,25.842803 31.0028409,26.1647727 C31.4289773,26.4867424 31.9734848,26.6477273 32.6363636,26.6477273 Z" id="Shape" fill="#191A1E"></path>
            <path d="M66.5795455,16.5340909 L59.3636364,16.5340909 C59.3257576,16.0890152 59.1695076,15.7054924 58.8948864,15.3835227 C58.6202652,15.061553 58.2675189,14.8129735 57.8366477,14.6377841 C57.4057765,14.4625947 56.9299242,14.375 56.4090909,14.375 C55.7367424,14.375 55.1590909,14.4981061 54.6761364,14.7443182 C54.1931818,14.9905303 53.9564394,15.3409091 53.9659091,15.7954545 C53.9564394,16.1174242 54.0961174,16.4157197 54.3849432,16.6903409 C54.6737689,16.9649621 55.2348485,17.1780303 56.0681818,17.3295455 L60.5,18.125 C62.7348485,18.532197 64.3991477,19.2163826 65.4928977,20.1775568 C66.5866477,21.1387311 67.1382576,22.4242424 67.1477273,24.0340909 C67.1382576,25.5871212 66.6766098,26.9341856 65.7627841,28.0752841 C64.8489583,29.2163826 63.6036932,30.0970644 62.0269886,30.7173295 C60.4502841,31.3375947 58.6534091,31.6477273 56.6363636,31.6477273 C53.3030303,31.6477273 50.6964962,30.9659091 48.8167614,29.6022727 C46.9370265,28.2386364 45.8882576,26.4393939 45.6704545,24.2045455 L53.4545455,24.2045455 C53.5587121,24.8958333 53.9019886,25.4285038 54.484375,25.8025568 C55.0667614,26.1766098 55.8030303,26.3636364 56.6931818,26.3636364 C57.4128788,26.3636364 58.0071023,26.2405303 58.4758523,25.9943182 C58.9446023,25.7481061 59.1837121,25.3977273 59.1931818,24.9431818 C59.1837121,24.5265152 58.9777462,24.1950758 58.5752841,23.9488636 C58.172822,23.7026515 57.5454545,23.5037879 56.6931818,23.3522727 L52.8295455,22.6704545 C50.6041667,22.282197 48.9375,21.5435606 47.8295455,20.4545455 C46.7215909,19.3655303 46.1723485,17.9640152 46.1818182,16.25 C46.1723485,14.7348485 46.5724432,13.4493371 47.3821023,12.3934659 C48.1917614,11.3375947 49.3517992,10.5326705 50.8622159,9.97869318 C52.3726326,9.42471591 54.1647727,9.14772727 56.2386364,9.14772727 C59.3920455,9.14772727 61.8802083,9.80113636 63.703125,11.1079545 C65.5260417,12.4147727 66.4848485,14.2234848 66.5795455,16.5340909 Z" id="Path" fill="#191A1E"></path>
            <path d="M73.9318182,39.4318182 C73.032197,39.4318182 72.1751894,39.3631629 71.3607955,39.2258523 C70.5464015,39.0885417 69.8314394,38.9015152 69.2159091,38.6647727 L70.9204545,33.0965909 C71.5643939,33.3238636 72.1538826,33.4706439 72.6889205,33.5369318 C73.2239583,33.6032197 73.6832386,33.5653409 74.0667614,33.4232955 C74.4502841,33.28125 74.7272727,33.0113636 74.8977273,32.6136364 L75.0681818,32.2159091 L67.3977273,9.43181818 L75.5795455,9.43181818 L79.1022727,24.5454545 L79.3295455,24.5454545 L82.9090909,9.43181818 L91.1477273,9.43181818 L83.1931818,33.0681818 C82.7954545,34.2708333 82.2201705,35.3527462 81.4673295,36.3139205 C80.7144886,37.2750947 79.7272727,38.0350379 78.5056818,38.59375 C77.2840909,39.1524621 75.7594697,39.4318182 73.9318182,39.4318182 Z" id="Path" fill="#191A1E"></path>
            <polygon id="Path" fill="#785FD5" points="99.2045455 31.25 99.2045455 2.15909091 120.170455 2.15909091 120.170455 8.52272727 107.102273 8.52272727 107.102273 13.5227273 119.090909 13.5227273 119.090909 19.8863636 107.102273 19.8863636 107.102273 24.8863636 120.113636 24.8863636 120.113636 31.25"></polygon>
            <path d="M123.204545,31.25 L123.204545,9.43181818 L130.647727,9.43181818 L130.647727,13.5795455 L130.875,13.5795455 C131.329545,12.2159091 132.106061,11.1363636 133.204545,10.3409091 C134.30303,9.54545455 135.609848,9.14772727 137.125,9.14772727 C138.659091,9.14772727 139.980114,9.55255682 141.088068,10.3622159 C142.196023,11.171875 142.863636,12.2443182 143.090909,13.5795455 L143.318182,13.5795455 C143.6875,12.2443182 144.473485,11.171875 145.676136,10.3622159 C146.878788,9.55255682 148.289773,9.14772727 149.909091,9.14772727 C152.001894,9.14772727 153.699337,9.82007576 155.00142,11.1647727 C156.303504,12.5094697 156.954545,14.2992424 156.954545,16.5340909 L156.954545,31.25 L149.113636,31.25 L149.113636,18.5227273 C149.113636,17.5662879 148.872159,16.8158144 148.389205,16.2713068 C147.90625,15.7267992 147.257576,15.4545455 146.443182,15.4545455 C145.638258,15.4545455 145.00142,15.7267992 144.53267,16.2713068 C144.06392,16.8158144 143.829545,17.5662879 143.829545,18.5227273 L143.829545,31.25 L136.329545,31.25 L136.329545,18.5227273 C136.329545,17.5662879 136.088068,16.8158144 135.605114,16.2713068 C135.122159,15.7267992 134.473485,15.4545455 133.659091,15.4545455 C133.119318,15.4545455 132.655303,15.5776515 132.267045,15.8238636 C131.878788,16.0700758 131.578125,16.422822 131.365057,16.8821023 C131.151989,17.3413826 131.045455,17.8882576 131.045455,18.5227273 L131.045455,31.25 L123.204545,31.25 Z" id="Path" fill="#785FD5"></path>
            <path d="M165.897727,31.5909091 C164.505682,31.5909091 163.276989,31.3612689 162.211648,30.9019886 C161.146307,30.4427083 160.310606,29.7443182 159.704545,28.8068182 C159.098485,27.8693182 158.795455,26.6761364 158.795455,25.2272727 C158.795455,24.0340909 158.999053,23.0137311 159.40625,22.1661932 C159.813447,21.3186553 160.381629,20.625 161.110795,20.0852273 C161.839962,19.5454545 162.689867,19.1335227 163.660511,18.8494318 C164.631155,18.5653409 165.679924,18.3806818 166.806818,18.2954545 C168.028409,18.2007576 169.01089,18.0847538 169.754261,17.9474432 C170.497633,17.8101326 171.035038,17.6160038 171.366477,17.3650568 C171.697917,17.1141098 171.863636,16.780303 171.863636,16.3636364 L171.863636,16.3068182 C171.863636,15.7386364 171.645833,15.3030303 171.210227,15 C170.774621,14.6969697 170.215909,14.5454545 169.534091,14.5454545 C168.785985,14.5454545 168.177557,14.7088068 167.708807,15.0355114 C167.240057,15.3622159 166.958333,15.8617424 166.863636,16.5340909 L159.647727,16.5340909 C159.742424,15.2083333 160.166193,13.984375 160.919034,12.8622159 C161.671875,11.7400568 162.772727,10.8404356 164.221591,10.1633523 C165.670455,9.48626894 167.479167,9.14772727 169.647727,9.14772727 C171.210227,9.14772727 172.611742,9.33001894 173.852273,9.69460227 C175.092803,10.0591856 176.148674,10.5658144 177.019886,11.2144886 C177.891098,11.8631629 178.556345,12.6207386 179.015625,13.4872159 C179.474905,14.3536932 179.704545,15.2935606 179.704545,16.3068182 L179.704545,31.25 L172.375,31.25 L172.375,28.1818182 L172.204545,28.1818182 C171.768939,28.9962121 171.241004,29.6543561 170.620739,30.15625 C170.000473,30.6581439 169.294981,31.0227273 168.504261,31.25 C167.713542,31.4772727 166.844697,31.5909091 165.897727,31.5909091 Z M168.454545,26.6477273 C169.051136,26.6477273 169.612216,26.5246212 170.137784,26.2784091 C170.663352,26.032197 171.091856,25.6770833 171.423295,25.2130682 C171.754735,24.749053 171.920455,24.1856061 171.920455,23.5227273 L171.920455,21.7045455 C171.712121,21.7897727 171.491951,21.8702652 171.259943,21.9460227 C171.027936,22.0217803 170.781723,22.092803 170.521307,22.1590909 C170.26089,22.2253788 169.986269,22.2869318 169.697443,22.34375 C169.408617,22.4005682 169.107955,22.4526515 168.795455,22.5 C168.189394,22.594697 167.694602,22.7485795 167.31108,22.9616477 C166.927557,23.1747159 166.643466,23.4351326 166.458807,23.7428977 C166.274148,24.0506629 166.181818,24.3939394 166.181818,24.7727273 C166.181818,25.3787879 166.394886,25.842803 166.821023,26.1647727 C167.247159,26.4867424 167.791667,26.6477273 168.454545,26.6477273 Z" id="Shape" fill="#785FD5"></path>
            <path d="M182.454545,31.25 L182.454545,9.43181818 L190.295455,9.43181818 L190.295455,31.25 L182.454545,31.25 Z M186.389205,7.15909091 C185.319129,7.15909091 184.405303,6.80871212 183.647727,6.10795455 C182.890152,5.40719697 182.511364,4.56439394 182.511364,3.57954545 C182.511364,2.59469697 182.890152,1.75189394 183.647727,1.05113636 C184.405303,0.350378788 185.314394,0 186.375,0 C187.445076,0 188.356534,0.350378788 189.109375,1.05113636 C189.862216,1.75189394 190.238636,2.59469697 190.238636,3.57954545 C190.238636,4.56439394 189.862216,5.40719697 189.109375,6.10795455 C188.356534,6.80871212 187.449811,7.15909091 186.389205,7.15909091 Z" id="Shape" fill="#785FD5"></path>
            <polygon id="Path" fill="#785FD5" points="201.113636 2.15909091 201.113636 31.25 193.272727 31.25 193.272727 2.15909091"></polygon>
        </g>
    </g>
</svg>