<?xml version="1.0" encoding="UTF-8"?>
<svg width="256px" height="256px" viewBox="0 0 256 256" version="1.1" xmlns="http://www.w3.org/2000/svg" xmlns:xlink="http://www.w3.org/1999/xlink">
    <title>Plugin Icon</title>
    <defs>
        <linearGradient x1="100%" y1="50%" x2="0%" y2="50%" id="linearGradient-1">
            <stop stop-color="#F6F7FE" offset="0%"></stop>
            <stop stop-color="#E4F5F7" offset="100%"></stop>
        </linearGradient>
    </defs>
    <g id="Page-1" stroke="none" stroke-width="1" fill="none" fill-rule="evenodd">
        <g id="Plugin-Icon">
            <rect id="Background" fill="url(#linearGradient-1)" x="0" y="0" width="256" height="256" rx="128"></rect>
            <g id="EE-outlines" transform="translate(59.2159, 84.7273)" fill-rule="nonzero">
                <polygon id="Path" fill="#191A1E" points="0 87.2727273 0 0 62.8977273 0 62.8977273 19.0909091 23.6931818 19.0909091 23.6931818 34.0909091 59.6590909 34.0909091 59.6590909 53.1818182 23.6931818 53.1818182 23.6931818 68.1818182 62.7272727 68.1818182 62.7272727 87.2727273"></polygon>
                <polygon id="Path" fill="#785FD5" points="73.909091 87.2727273 73.909091 0 136.806818 0 136.806818 19.0909091 97.6022728 19.0909091 97.6022728 34.0909091 133.568182 34.0909091 133.568182 53.1818182 97.6022728 53.1818182 97.6022728 68.1818182 136.636364 68.1818182 136.636364 87.2727273"></polygon>
            </g>
        </g>
    </g>
</svg>